# xmcd
#
# Track frame offsets:
#       150
#       25359
#       59024
#       85488
#       121504
#       141982
#       166036
#       180147
#
# Disc length: 2785 seconds
#
# Revision: 0
# Processed by: cddbd v1.5.2PL0 Copyright (c) Steve Scherf et al.
# Submitted via: WaveLab 4.01
#
DISCID=600adf08
DTITLE=Weltbild Musik - Gelassenheit durch Selbsthypnose
DYEAR=2010
DGENRE=Selbsthypnose
TTITLE0=1. Entspannungsphase
TTITLE1=2. Tor zum Unterbewusstsein
TTITLE2=3. Reise durch den Alltag
TTITLE3=4. Reise durch den Körper
TTITLE4=5. Mein Ruhepunkt
TTITLE5=6. Lachen tut gut
TTITLE6=7. Leben in Balance
TTITLE7=8. Rückkehr und Verbindung zum Alltag
EXTD=
EXTT0=
EXTT1=
EXTT2=
EXTT3=
EXTT4=
EXTT5=
EXTT6=
EXTT7=
PLAYORDER=
